<svg width="285" height="350" viewBox="0 0 285 350" fill="none" xmlns="http://www.w3.org/2000/svg">
<g clip-path="url(#clip0_1_353)">
<path d="M149.08 89.8331V82.8331H156.08V89.8331H149.08Z" fill="#F5BD33"/>
<path d="M149.08 221.083V214.083H156.08V221.083H149.08Z" fill="#3FBDF1"/>
<path d="M149.08 46.0835V39.0835H156.08V46.0835H149.08Z" fill="#3FBDF1"/>
<path d="M149.08 177.333V170.333H156.08V177.333H149.08Z" fill="#F5BD33"/>
<path d="M149.08 133.583V126.583H156.08V133.583H149.08Z" fill="#3FBDF1"/>
<path d="M149.08 264.833V257.833H156.08V264.833H149.08Z" fill="#F5BD33"/>
<path d="M149.08 308.583V301.583H156.08V308.583H149.08Z" fill="#3FBDF1"/>
<path d="M17.8297 89.8331V82.8331H24.8297V89.8331H17.8297Z" fill="#3FBDF1"/>
<path d="M17.8297 221.083V214.083H24.8297V221.083H17.8297Z" fill="#F5BD33"/>
<path d="M17.8297 46.0835V39.0835H24.8297V46.0835H17.8297Z" fill="#F5BD33"/>
<path d="M17.8297 177.333V170.333H24.8297V177.333H17.8297Z" fill="#3FBDF1"/>
<path d="M17.8297 133.583V126.583H24.8297V133.583H17.8297Z" fill="#F5BD33"/>
<path d="M17.8297 264.833V257.833H24.8297V264.833H17.8297Z" fill="#3FBDF1"/>
<path d="M17.8297 308.583V301.583H24.8297V308.583H17.8297Z" fill="#F5BD33"/>
<path d="M236.58 89.8331V82.8331H243.58V89.8331H236.58Z" fill="#F5BD33"/>
<path d="M236.58 221.083V214.083H243.58V221.083H236.58Z" fill="#3FBDF1"/>
<path d="M236.58 46.0835V39.0835H243.58V46.0835H236.58Z" fill="#3FBDF1"/>
<path d="M236.58 177.333V170.333H243.58V177.333H236.58Z" fill="#F5BD33"/>
<path d="M236.58 133.583V126.583H243.58V133.583H236.58Z" fill="#3FBDF1"/>
<path d="M236.58 264.833V257.833H243.58V264.833H236.58Z" fill="#F5BD33"/>
<path d="M236.58 308.583V301.583H243.58V308.583H236.58Z" fill="#3FBDF1"/>
<path d="M105.33 89.8331V82.8331H112.33V89.8331H105.33Z" fill="#3FBDF1"/>
<path d="M105.33 221.083V214.083H112.33V221.083H105.33Z" fill="#F5BD33"/>
<path d="M105.33 46.0835V39.0835H112.33V46.0835H105.33Z" fill="#F5BD33"/>
<path d="M105.33 177.333V170.333H112.33V177.333H105.33Z" fill="#3FBDF1"/>
<path d="M105.33 133.583V126.583H112.33V133.583H105.33Z" fill="#F5BD33"/>
<path d="M105.33 264.833V257.833H112.33V264.833H105.33Z" fill="#3FBDF1"/>
<path d="M105.33 308.583V301.583H112.33V308.583H105.33Z" fill="#F5BD33"/>
<path d="M192.83 89.8331V82.8331H199.83V89.8331H192.83Z" fill="#3FBDF1"/>
<path d="M192.83 221.083V214.083H199.83V221.083H192.83Z" fill="#F5BD33"/>
<path d="M192.83 46.0835V39.0835H199.83V46.0835H192.83Z" fill="#F5BD33"/>
<path d="M192.83 177.333V170.333H199.83V177.333H192.83Z" fill="#3FBDF1"/>
<path d="M192.83 133.583V126.583H199.83V133.583H192.83Z" fill="#F5BD33"/>
<path d="M192.83 264.833V257.833H199.83V264.833H192.83Z" fill="#3FBDF1"/>
<path d="M192.83 308.583V301.583H199.83V308.583H192.83Z" fill="#F5BD33"/>
<path d="M61.5797 89.8331V82.8331H68.5797V89.8331H61.5797Z" fill="#F5BD33"/>
<path d="M61.5797 221.083V214.083H68.5797V221.083H61.5797Z" fill="#3FBDF1"/>
<path d="M61.5797 46.0835V39.0835H68.5797V46.0835H61.5797Z" fill="#3FBDF1"/>
<path d="M61.5797 177.333V170.333H68.5797V177.333H61.5797Z" fill="#F5BD33"/>
<path d="M61.5797 133.583V126.583H68.5797V133.583H61.5797Z" fill="#3FBDF1"/>
<path d="M61.5797 264.833V257.833H68.5797V264.833H61.5797Z" fill="#F5BD33"/>
<path d="M61.5797 308.583V301.583H68.5797V308.583H61.5797Z" fill="#3FBDF1"/>
<path d="M24.8297 350H17.8297V346.5H24.8297V350Z" fill="#3FBDF1"/>
<path d="M68.5797 350H61.5797V346.5H68.5797V350Z" fill="#F5BD33"/>
<path d="M112.33 350H105.33V346.5H112.33V350Z" fill="#3FBDF1"/>
<path d="M156.08 350H149.08V346.5H156.08V350Z" fill="#F5BD33"/>
<path d="M199.83 350H192.83V346.5H199.83V350Z" fill="#3FBDF1"/>
<path d="M243.58 350H236.58V346.5H243.58V350Z" fill="#F5BD33"/>
<path d="M285 346.5V350H281.5V346.5H285Z" fill="#3FBDF1"/>
<path d="M285 301.583V308.583H281.5V301.583H285Z" fill="#F5BD33"/>
<path d="M285 257.833V264.833H281.5V257.833H285Z" fill="#3FBDF1"/>
<path d="M285 214.083V221.083H281.5V214.083H285Z" fill="#F5BD33"/>
<path d="M285 170.333V177.333H281.5V170.333H285Z" fill="#3FBDF1"/>
<path d="M285 126.583V133.583H281.5V126.583H285Z" fill="#F5BD33"/>
<path d="M285 82.8331V89.8331H281.5V82.8331H285Z" fill="#3FBDF1"/>
<path d="M285 39.0835V46.0835H281.5V39.0835H285Z" fill="#F5BD33"/>
<path d="M281.5 0V3.5H285V0H281.5Z" fill="#3FBDF1"/>
<path d="M236.58 0V3.5H243.58V0H236.58Z" fill="#F5BD33"/>
<path d="M192.83 0V3.5H199.83V0H192.83Z" fill="#3FBDF1"/>
<path d="M149.08 0V3.5H156.08V0H149.08Z" fill="#F5BD33"/>
<path d="M105.33 0V3.5H112.33V0H105.33Z" fill="#3FBDF1"/>
<path d="M61.5797 0V3.5H68.5797V0H61.5797Z" fill="#F5BD33"/>
<path d="M17.8297 0V3.5H24.8297V0H17.8297Z" fill="#3FBDF1"/>
</g>
<defs>
<clipPath id="clip0_1_353">
<rect width="350" height="350" fill="white" transform="translate(-65)"/>
</clipPath>
</defs>
</svg>
