<svg width="32" height="23" viewBox="0 0 32 23" fill="none" xmlns="http://www.w3.org/2000/svg">
<path fill-rule="evenodd" clip-rule="evenodd" d="M0 0V19.2C0 20.9673 1.43269 22.4 3.2 22.4H28.8C30.5673 22.4 32 20.9673 32 19.2V0H0ZM31.2 0.8H0.8V2.60304L16 14.2953L31.2 2.60304V0.8ZM0.8 19.2V3.61235L12.2696 12.4351L1.43263 20.8237C1.03982 20.3964 0.8 19.8262 0.8 19.2ZM2.08853 21.3277C2.42083 21.5016 2.79893 21.6 3.2 21.6H28.8C29.2011 21.6 29.5792 21.5016 29.9115 21.3277L19.0749 12.9394L16 15.3047L12.9251 12.9394L2.08853 21.3277ZM19.7304 12.4351L30.5674 20.8237C30.9602 20.3964 31.2 19.8262 31.2 19.2V3.61235L19.7304 12.4351Z" fill="black"/>
</svg>
