<svg width="28" height="28" viewBox="0 0 28 28" fill="none" xmlns="http://www.w3.org/2000/svg">
<path fill-rule="evenodd" clip-rule="evenodd" d="M6.6 9.8H6.2C5.87828 16.5562 11.4438 22.1217 18.2 21.8V21.4C18.2 19.6327 19.6327 18.2 21.4 18.2H28V20C28 24.4183 24.4183 28 20 28C8.95431 28 0 19.0457 0 8C0 3.58172 3.58172 0 8 0H9.8V6.6C9.8 8.36731 8.36731 9.8 6.6 9.8ZM21.4 19H27.2V20C27.2 23.9765 23.9765 27.2 20 27.2C9.39613 27.2 0.8 18.6039 0.8 8C0.8 4.02355 4.02355 0.8 8 0.8H9V6.6C9 7.92548 7.92548 9 6.6 9H5.43719L5.40091 9.76195C5.05674 16.9895 11.0105 22.9433 18.2381 22.5991L19 22.5628V21.4C19 20.0745 20.0745 19 21.4 19Z" fill="black"/>
<path d="M18.8 0.8C23.4392 0.8 27.2 4.56081 27.2 9.2H28C28 4.11898 23.881 0 18.8 0V0.8Z" fill="black"/>
<path d="M18.8 3.2C22.1137 3.2 24.8 5.88629 24.8 9.2H25.6C25.6 5.44446 22.5555 2.4 18.8 2.4V3.2Z" fill="black"/>
<path d="M22.4 9.2C22.4 7.21178 20.7882 5.6 18.8 5.6V4.8C21.2301 4.8 23.2 6.76995 23.2 9.2H22.4Z" fill="black"/>
</svg>
